<?xml version="1.0" encoding="UTF-8"?>
<svg id="_Слой_2" data-name="Слой 2" xmlns="http://www.w3.org/2000/svg" viewBox="0 0 1000 1000">
  <defs>
    <style>
      .cls-1 {
        fill: #fff;
      }

      .cls-2 {
        fill: #002fa7;
      }
    </style>
  </defs>
  <g id="_Слой_1-2" data-name="Слой 1">
    <g>
      <path class="cls-2" d="M500,0C223.85,0,0,223.86,0,500s223.85,500,500,500,500-223.85,500-500S776.14,0,500,0ZM750.84,805.28H249.15v-80.59h501.69v80.59ZM514.27,630.07c-201.61,0-341.36-86.23-341.36-219.45s139.75-217.06,341.36-215.88c170.68-.59,278.32,71.96,310.44,171.28h-170.09c-23.19-41.03-61.85-58.28-140.35-58.28-107.64,0-156.41,31.52-156.41,102.88s48.77,106.46,156.41,106.46c79.1,0,120.13-19.03,143.32-61.85h169.5c-33.9,101.1-140.35,174.84-312.82,174.84Z"/>
      <rect class="cls-1" x="249.15" y="724.69" width="501.69" height="80.59"/>
      <path class="cls-1" d="M827.09,455.23c-33.9,101.1-140.35,174.84-312.82,174.84-201.61,0-341.36-86.23-341.36-219.45s139.75-217.06,341.36-215.88c170.68-.59,278.32,71.96,310.44,171.28h-170.09c-23.19-41.03-61.85-58.28-140.35-58.28-107.64,0-156.41,31.52-156.41,102.88s48.77,106.46,156.41,106.46c79.1,0,120.13-19.03,143.32-61.85h169.5Z"/>
    </g>
  </g>
</svg>