<svg width="385" height="72" viewBox="0 0 385 72" fill="none" xmlns="http://www.w3.org/2000/svg">
<path d="M18.1 26.8984H0V71.1984H9.8V57.8984H17.2C27.1 57.8984 35.1 52.5984 35.1 42.2984V42.1984C35.1 33.1984 28.7 26.8984 18.1 26.8984ZM25.2 42.4984C25.2 46.2984 22.4 49.1984 17.5 49.1984H9.8V35.6984H17.3C22.2 35.6984 25.2 37.9984 25.2 42.3984V42.4984Z" fill="black"/>
<path d="M91.9 41.7V41.6C91.9 37.4 90.6 33.9 88.1 31.5C85.2 28.6 80.8 27 75.2 27H55V71.3H64.8V57H72.5L82 71.2H93.4L82.4 55.4C88.1 53.3 91.9 48.8 91.9 41.7ZM82.1 42.2C82.1 45.9 79.4 48.5 74.6 48.5H64.7V35.7H74.4C79.1 35.7 82.1 37.9 82.1 42V42.2Z" fill="black"/>
<path d="M197.998 26.8984H179.898V71.1984H189.698V57.8984H197.098C206.998 57.8984 214.998 52.5984 214.998 42.2984V42.1984C214.898 33.1984 208.498 26.8984 197.998 26.8984ZM205.098 42.4984C205.098 46.2984 202.298 49.1984 197.398 49.1984H189.698V35.6984H197.198C202.098 35.6984 205.098 37.9984 205.098 42.3984V42.4984Z" fill="black"/>
<path d="M262.597 44.3984H244.597V26.8984H234.797V71.1984H244.597V53.3984H262.597V71.1984H272.297V26.8984H262.597V44.3984Z" fill="black"/>
<path d="M305.302 53.1984H326.202V44.5984H305.302V35.5984H329.002V26.8984H295.602V71.1984H329.302V62.4984H305.302V53.1984Z" fill="black"/>
<path d="M347.5 26.8984V35.8984H361V71.1984H370.8V35.8984H384.2V26.8984H347.5Z" fill="black"/>
<path d="M121.598 49.0992V48.9992C121.598 41.3992 126.998 35.1992 134.898 35.1992C136.098 35.1992 137.198 35.3992 138.298 35.5992L144.498 27.9992C141.698 26.7992 138.498 26.1992 134.998 26.1992C121.298 26.1992 111.398 36.4992 111.398 49.0992V49.1992C111.398 54.3992 113.098 59.2992 116.098 63.0992L122.798 54.7992C121.998 53.0992 121.598 51.0992 121.598 49.0992Z" fill="black"/>
<path d="M148.002 46.0984C148.202 47.0984 148.302 48.0984 148.302 49.0984V49.1984C148.302 56.7984 142.902 62.9984 135.002 62.9984C132.702 62.9984 130.702 62.4984 128.902 61.4984L121.102 67.7984C124.902 70.3984 129.602 71.9984 134.902 71.9984C148.602 71.9984 158.502 61.6984 158.502 49.0984V48.9984C158.502 45.4984 157.702 42.2984 156.402 39.3984L148.002 46.0984Z" fill="black"/>
<path d="M163.9 27.1008C167.711 27.1008 170.8 24.0115 170.8 20.2008C170.8 16.39 167.711 13.3008 163.9 13.3008C160.089 13.3008 157 16.39 157 20.2008C157 24.0115 160.089 27.1008 163.9 27.1008Z" fill="black"/>
<path d="M180.197 7.8C182.351 7.8 184.097 6.05391 184.097 3.9C184.097 1.74609 182.351 0 180.197 0C178.043 0 176.297 1.74609 176.297 3.9C176.297 6.05391 178.043 7.8 180.197 7.8Z" fill="black"/>
</svg>
